<mxfile host="65bd71144e">
    <diagram id="UzdVlq7F7tRbctooKbw0" name="Page-1">
        <mxGraphModel dx="1688" dy="255" grid="1" gridSize="10" guides="1" tooltips="1" connect="1" arrows="1" fold="1" page="1" pageScale="1" pageWidth="1100" pageHeight="850" math="0" shadow="0">
            <root>
                <mxCell id="0"/>
                <mxCell id="1" parent="0"/>
                <mxCell id="2" value="" style="shape=table;startSize=0;container=1;collapsible=0;childLayout=tableLayout;" vertex="1" parent="1">
                    <mxGeometry x="20" y="60" width="480" height="40" as="geometry"/>
                </mxCell>
                <mxCell id="3" value="" style="shape=tableRow;horizontal=0;startSize=0;swimlaneHead=0;swimlaneBody=0;top=0;left=0;bottom=0;right=0;collapsible=0;dropTarget=0;fillColor=none;points=[[0,0.5],[1,0.5]];portConstraint=eastwest;" vertex="1" parent="2">
                    <mxGeometry width="480" height="40" as="geometry"/>
                </mxCell>
                <mxCell id="4" value="2" style="shape=partialRectangle;html=1;whiteSpace=wrap;connectable=0;overflow=hidden;fillColor=none;top=0;left=0;bottom=0;right=0;pointerEvents=1;" vertex="1" parent="3">
                    <mxGeometry width="96" height="40" as="geometry">
                        <mxRectangle width="96" height="40" as="alternateBounds"/>
                    </mxGeometry>
                </mxCell>
                <mxCell id="5" value="3" style="shape=partialRectangle;html=1;whiteSpace=wrap;connectable=0;overflow=hidden;fillColor=none;top=0;left=0;bottom=0;right=0;pointerEvents=1;" vertex="1" parent="3">
                    <mxGeometry x="96" width="96" height="40" as="geometry">
                        <mxRectangle width="96" height="40" as="alternateBounds"/>
                    </mxGeometry>
                </mxCell>
                <mxCell id="6" value="2.5" style="shape=partialRectangle;html=1;whiteSpace=wrap;connectable=0;overflow=hidden;fillColor=none;top=0;left=0;bottom=0;right=0;pointerEvents=1;" vertex="1" parent="3">
                    <mxGeometry x="192" width="96" height="40" as="geometry">
                        <mxRectangle width="96" height="40" as="alternateBounds"/>
                    </mxGeometry>
                </mxCell>
                <mxCell id="7" value="1" style="shape=partialRectangle;html=1;whiteSpace=wrap;connectable=0;overflow=hidden;fillColor=none;top=0;left=0;bottom=0;right=0;pointerEvents=1;" vertex="1" parent="3">
                    <mxGeometry x="288" width="96" height="40" as="geometry">
                        <mxRectangle width="96" height="40" as="alternateBounds"/>
                    </mxGeometry>
                </mxCell>
                <mxCell id="8" value="" style="shape=partialRectangle;html=1;whiteSpace=wrap;connectable=0;overflow=hidden;fillColor=none;top=0;left=0;bottom=0;right=0;pointerEvents=1;" vertex="1" parent="3">
                    <mxGeometry x="384" width="96" height="40" as="geometry">
                        <mxRectangle width="96" height="40" as="alternateBounds"/>
                    </mxGeometry>
                </mxCell>
                <mxCell id="12" value="&lt;font style=&quot;font-size: 6px;&quot;&gt;maxi1=0&lt;br&gt;maxi2=0&lt;br&gt;&lt;/font&gt;" style="text;html=1;align=center;verticalAlign=middle;resizable=0;points=[];autosize=1;strokeColor=none;fillColor=none;" vertex="1" parent="1">
                    <mxGeometry x="-40" y="125.59" width="50" height="40" as="geometry"/>
                </mxCell>
                <mxCell id="16" value="" style="shape=stencil(lVrbclMxDPyavGp8vzxD+Y/OEGiG0jJtuf09MhmfxtLJOn4rYTfxRVqvZB/8h9eH+x/HgzOvby/P346/T5/fHg7+48G509PD8eX0xn8d/N3Bf/jy/HL8+vL88+nz+d8/7huy/fX9+Vf7hj9nXolUbWM58/f8iSFr/n/w6Yx/PD1d4KujmgQ+OoBPVKrAlwTwlXwe8JZcvo63xpAxgpABgX/AlAHvyEeAzxTjgPdkLMAHykHgM5qwpTBuQKAENqDwgvoBHymC7y+8HCM+UazX8TmSHzc49y/YxackN6xQBesfM/lxfawhV64TQiE3RpC1lMAMgukRsxE8WfAL3lEWIRRgDPES+jEmLH8ChvSeJBuhkAEEG2Wa2UoFhB2P2IzbzHmA4oLXxI2T5kD1iOCojJPmyLMgc6xaVl63CkKJCWkMDY4ltNONMOaONxQmvzAOifferhE4nUEsMSGO0epjD/hbCZzhQFF3CJwha4SKQ0MROKVQPuwQbJf9Wwl8rizNIfiug7cSWFfX5hC7Mt9KSDin9wgZJ5AkZApLscTiadeWtSwGX6jwONGEyCkKzrcdgiW/RuATfWnjIivfUk7HQHFpH2LE6q0JGR5ZOwSWyiVCMourlFw/Ym4l+EXVSGxl1n4hQ+uwQ2D3txTemZVvaZWyW5T77LsDv5Wwqkt5euxKQqGwtHGFTTgSMk9pNCfNlaJ9iF22NoLHysdKKobEX4HOuCJtfTPWIJbYwnkxhwKVj+sKO7qZyqUVInAgjEPi2gDlNPuvPJrE6mF4N+s/zoGrFYuNbhG/EGeEOu4DF4BwSLlHzgUB1RuNMNZvNcOMa4QqCcic7BAKPB+YEJwkFHBksa21Yh8qrIpbDRYlAakG74Ow0o0AUpSrTtEHaAQ0aSeD76IUv5ZBwSwx3ouky0Eht8HBlhQBSVmQhVkjILH0OwsLra6nqBa2ILEMvaq6JCDB5/OgSAI8eLMs2RsBqWulpFYJJqlVMjAhBHJqWdGQOMCtHhJSJk7SpWV1e8GHNo5/oargmwmN2jgUfK3Vo2UATXov+FACtW7bco4W2c+ZMFIv6m+UGs6IquIViRnnXFmSSyYE9QtIkNcJofv5G8+IpkxGEmCVogn4nGNCUAcj9K5MEAGOz+pGMJIA/TfLwJLf4H2oQjewo2mtQLFx2DNZK/uhFbcfq8pRbPvU0T7xlaozWBLc5iAzeuKMnfSIM+tNZtyBibdX/fpJ8aDwk+pE43H5o/G4vtJ4XMBpPK4QNR6XoAo/qXE1HhfRGo+rdI3HbQCNx30GjceNDIWfdEo0HrdiNB73ejQeN5M0HnerNB63wzQe99s0Hjf0FH7SMdR43JLcw6Oep8bjpqrG467tHh61hTV+UX8mjW2Nx51zjceteY3HvX+Nx5cLCj+5vdB4fD2i8fj+RePxBY/G4xsk06+XNzy+ojJd7Tc8vgMzsuEyuWRj9zKOZ3KLZ6SFm1wTGnnDNruH7LPb8Pii06sHBRUa79xnt+FLL9OuOUrZCEm4XaRWtF0348IyjbVDc7FoylFWWO3KHBBYQsQjgXYpD4bEZ1Aeo650I76LT+oeNffL4X18kY3HRBGIRPY7ryLAePKmCZsKUQR7xp7Wi6yE7YmyeZ53PKqJS1CX6/BVSomySWShqBQvX6VYaAqKyjIDTS6vZy0Cj16xZPUqxUCTxXhRSRooKoyPCo/G7+TzCQOTnvGiV4+LmBxkvBlocrkGyer70fhVdwv3YHKV/TaM53gQpxIeT1FPOQwsSjj+jXxWZlB+RVnGMx7ow+oztzme/3h/U/fl9Ph4fpJ3+f/yDR5/dH6/5+/+AQ==);lineShape=1;fontSize=6;" vertex="1" parent="1">
                    <mxGeometry x="18.69779782292244" y="100.58929845154918" width="1.260633702807224" height="67.5955135367397" as="geometry"/>
                </mxCell>
                <mxCell id="17" value="" style="shape=stencil(lVrbclMxDPyavGp8vzxD+Y/OEGiG0jJtuf09MhmfxtLJOn4rYTfxRVqvZB/8h9eH+x/HgzOvby/P346/T5/fHg7+48G509PD8eX0xn8d/N3Bf/jy/HL8+vL88+nz+d8/7huy/fX9+Vf7hj9nXolUbWM58/f8iSFr/n/w6Yx/PD1d4KujmgQ+OoBPVKrAlwTwlXwe8JZcvo63xpAxgpABgX/AlAHvyEeAzxTjgPdkLMAHykHgM5qwpTBuQKAENqDwgvoBHymC7y+8HCM+UazX8TmSHzc49y/YxackN6xQBesfM/lxfawhV64TQiE3RpC1lMAMgukRsxE8WfAL3lEWIRRgDPES+jEmLH8ChvSeJBuhkAEEG2Wa2UoFhB2P2IzbzHmA4oLXxI2T5kD1iOCojJPmyLMgc6xaVl63CkKJCWkMDY4ltNONMOaONxQmvzAOifferhE4nUEsMSGO0epjD/hbCZzhQFF3CJwha4SKQ0MROKVQPuwQbJf9Wwl8rizNIfiug7cSWFfX5hC7Mt9KSDin9wgZJ5AkZApLscTiadeWtSwGX6jwONGEyCkKzrcdgiW/RuATfWnjIivfUk7HQHFpH2LE6q0JGR5ZOwSWyiVCMourlFw/Ym4l+EXVSGxl1n4hQ+uwQ2D3txTemZVvaZWyW5T77LsDv5Wwqkt5euxKQqGwtHGFTTgSMk9pNCfNlaJ9iF22NoLHysdKKobEX4HOuCJtfTPWIJbYwnkxhwKVj+sKO7qZyqUVInAgjEPi2gDlNPuvPJrE6mF4N+s/zoGrFYuNbhG/EGeEOu4DF4BwSLlHzgUB1RuNMNZvNcOMa4QqCcic7BAKPB+YEJwkFHBksa21Yh8qrIpbDRYlAakG74Ow0o0AUpSrTtEHaAQ0aSeD76IUv5ZBwSwx3ouky0Eht8HBlhQBSVmQhVkjILH0OwsLra6nqBa2ILEMvaq6JCDB5/OgSAI8eLMs2RsBqWulpFYJJqlVMjAhBHJqWdGQOMCtHhJSJk7SpWV1e8GHNo5/oargmwmN2jgUfK3Vo2UATXov+FACtW7bco4W2c+ZMFIv6m+UGs6IquIViRnnXFmSSyYE9QtIkNcJofv5G8+IpkxGEmCVogn4nGNCUAcj9K5MEAGOz+pGMJIA/TfLwJLf4H2oQjewo2mtQLFx2DNZK/uhFbcfq8pRbPvU0T7xlaozWBLc5iAzeuKMnfSIM+tNZtyBibdX/fpJ8aDwk+pE43H5o/G4vtJ4XMBpPK4QNR6XoAo/qXE1HhfRGo+rdI3HbQCNx30GjceNDIWfdEo0HrdiNB73ejQeN5M0HnerNB63wzQe99s0Hjf0FH7SMdR43JLcw6Oep8bjpqrG467tHh61hTV+UX8mjW2Nx51zjceteY3HvX+Nx5cLCj+5vdB4fD2i8fj+RePxBY/G4xsk06+XNzy+ojJd7Tc8vgMzsuEyuWRj9zKOZ3KLZ6SFm1wTGnnDNruH7LPb8Pii06sHBRUa79xnt+FLL9OuOUrZCEm4XaRWtF0348IyjbVDc7FoylFWWO3KHBBYQsQjgXYpD4bEZ1Aeo650I76LT+oeNffL4X18kY3HRBGIRPY7ryLAePKmCZsKUQR7xp7Wi6yE7YmyeZ53PKqJS1CX6/BVSomySWShqBQvX6VYaAqKyjIDTS6vZy0Cj16xZPUqxUCTxXhRSRooKoyPCo/G7+TzCQOTnvGiV4+LmBxkvBlocrkGyer70fhVdwv3YHKV/TaM53gQpxIeT1FPOQwsSjj+jXxWZlB+RVnGMx7ow+oztzme/3h/U/fl9Ph4fpJ3+f/yDR5/dH6/5+/+AQ==);lineShape=1;fontSize=6;" vertex="1" parent="1">
                    <mxGeometry x="69.99779782292244" y="99.99929845154918" width="1.260633702807224" height="67.5955135367397" as="geometry"/>
                </mxCell>
                <mxCell id="23" value="" style="shape=stencil(lVrbclMxDPyavGp8vzxD+Y/OEGiG0jJtuf09MhmfxtLJOn4rYTfxRVqvZB/8h9eH+x/HgzOvby/P346/T5/fHg7+48G509PD8eX0xn8d/N3Bf/jy/HL8+vL88+nz+d8/7huy/fX9+Vf7hj9nXolUbWM58/f8iSFr/n/w6Yx/PD1d4KujmgQ+OoBPVKrAlwTwlXwe8JZcvo63xpAxgpABgX/AlAHvyEeAzxTjgPdkLMAHykHgM5qwpTBuQKAENqDwgvoBHymC7y+8HCM+UazX8TmSHzc49y/YxackN6xQBesfM/lxfawhV64TQiE3RpC1lMAMgukRsxE8WfAL3lEWIRRgDPES+jEmLH8ChvSeJBuhkAEEG2Wa2UoFhB2P2IzbzHmA4oLXxI2T5kD1iOCojJPmyLMgc6xaVl63CkKJCWkMDY4ltNONMOaONxQmvzAOifferhE4nUEsMSGO0epjD/hbCZzhQFF3CJwha4SKQ0MROKVQPuwQbJf9Wwl8rizNIfiug7cSWFfX5hC7Mt9KSDin9wgZJ5AkZApLscTiadeWtSwGX6jwONGEyCkKzrcdgiW/RuATfWnjIivfUk7HQHFpH2LE6q0JGR5ZOwSWyiVCMourlFw/Ym4l+EXVSGxl1n4hQ+uwQ2D3txTemZVvaZWyW5T77LsDv5Wwqkt5euxKQqGwtHGFTTgSMk9pNCfNlaJ9iF22NoLHysdKKobEX4HOuCJtfTPWIJbYwnkxhwKVj+sKO7qZyqUVInAgjEPi2gDlNPuvPJrE6mF4N+s/zoGrFYuNbhG/EGeEOu4DF4BwSLlHzgUB1RuNMNZvNcOMa4QqCcic7BAKPB+YEJwkFHBksa21Yh8qrIpbDRYlAakG74Ow0o0AUpSrTtEHaAQ0aSeD76IUv5ZBwSwx3ouky0Eht8HBlhQBSVmQhVkjILH0OwsLra6nqBa2ILEMvaq6JCDB5/OgSAI8eLMs2RsBqWulpFYJJqlVMjAhBHJqWdGQOMCtHhJSJk7SpWV1e8GHNo5/oargmwmN2jgUfK3Vo2UATXov+FACtW7bco4W2c+ZMFIv6m+UGs6IquIViRnnXFmSSyYE9QtIkNcJofv5G8+IpkxGEmCVogn4nGNCUAcj9K5MEAGOz+pGMJIA/TfLwJLf4H2oQjewo2mtQLFx2DNZK/uhFbcfq8pRbPvU0T7xlaozWBLc5iAzeuKMnfSIM+tNZtyBibdX/fpJ8aDwk+pE43H5o/G4vtJ4XMBpPK4QNR6XoAo/qXE1HhfRGo+rdI3HbQCNx30GjceNDIWfdEo0HrdiNB73ejQeN5M0HnerNB63wzQe99s0Hjf0FH7SMdR43JLcw6Oep8bjpqrG467tHh61hTV+UX8mjW2Nx51zjceteY3HvX+Nx5cLCj+5vdB4fD2i8fj+RePxBY/G4xsk06+XNzy+ojJd7Tc8vgMzsuEyuWRj9zKOZ3KLZ6SFm1wTGnnDNruH7LPb8Pii06sHBRUa79xnt+FLL9OuOUrZCEm4XaRWtF0348IyjbVDc7FoylFWWO3KHBBYQsQjgXYpD4bEZ1Aeo650I76LT+oeNffL4X18kY3HRBGIRPY7ryLAePKmCZsKUQR7xp7Wi6yE7YmyeZ53PKqJS1CX6/BVSomySWShqBQvX6VYaAqKyjIDTS6vZy0Cj16xZPUqxUCTxXhRSRooKoyPCo/G7+TzCQOTnvGiV4+LmBxkvBlocrkGyer70fhVdwv3YHKV/TaM53gQpxIeT1FPOQwsSjj+jXxWZlB+RVnGMx7ow+oztzme/3h/U/fl9Ph4fpJ3+f/yDR5/dH6/5+/+AQ==);lineShape=1;fontSize=6;" vertex="1" parent="1">
                    <mxGeometry x="109.99779782292244" y="100.58929845154918" width="1.260633702807224" height="67.5955135367397" as="geometry"/>
                </mxCell>
                <mxCell id="24" value="just aaya iswale&lt;br&gt;&amp;nbsp;pe" style="text;html=1;align=center;verticalAlign=middle;resizable=0;points=[];autosize=1;strokeColor=none;fillColor=none;fontSize=6;" vertex="1" parent="1">
                    <mxGeometry x="10" y="95.59" width="70" height="30" as="geometry"/>
                </mxCell>
                <mxCell id="25" value="ab niklunga&lt;br&gt;iswale se" style="text;html=1;align=center;verticalAlign=middle;resizable=0;points=[];autosize=1;strokeColor=none;fillColor=none;fontSize=6;" vertex="1" parent="1">
                    <mxGeometry x="68.3" y="95.59" width="50" height="30" as="geometry"/>
                </mxCell>
                <mxCell id="26" value="&lt;font style=&quot;font-size: 6px;&quot;&gt;maxi1=0&lt;br&gt;maxi2=0&lt;br&gt;&lt;/font&gt;" style="text;html=1;align=center;verticalAlign=middle;resizable=0;points=[];autosize=1;strokeColor=none;fillColor=none;" vertex="1" parent="1">
                    <mxGeometry x="18.299999999999997" y="125.59" width="50" height="40" as="geometry"/>
                </mxCell>
                <mxCell id="27" value="&lt;font style=&quot;font-size: 6px;&quot;&gt;maxi1=2&lt;br&gt;maxi2=0&lt;br&gt;&lt;/font&gt;" style="text;html=1;align=center;verticalAlign=middle;resizable=0;points=[];autosize=1;strokeColor=none;fillColor=none;" vertex="1" parent="1">
                    <mxGeometry x="64.35" y="125.59" width="50" height="40" as="geometry"/>
                </mxCell>
                <mxCell id="29" value="x" style="shape=stencil(lZvbch0nEEW/Rq8U98uz4/yHqyzHqjiWS7Zz+fs0URid2fTZDG+21EsDTQObpnkI775//vDt8cHb7z9enn9//Ovp44/PD+GXB++fvn5+fHn6If96CO8fwrtPzy+Pv708//z68fX/3z50y/6vP57/7H/h71fOFVNtp7z95/Un1rj03w9+fbX/8vT1xl5+XRrY50rso2nxZO+M88S+YnucicQ+BJMb2P/fQN2+GetO9t54e98+RpMi2GfSntiMyyf7YCzxZwrj82/2yRH7gu0PphVi30zxJ/toYrxvn51paN9Ie7I3NZzskwnE/zkYV8G+Zm6fTvbZBOJPaU9rYF+Jf3r7z3+/mEjiQexLAPvG25PPf7+aROJH7NPZPxKwzJ8e47OZzPubYH5Z41lAeBMrApV7KJ5ngHMmLL6QEKAx4UcIH4BfDVoMCCxGLZ5ngQvDz1eBOBaC60DlgYFAMmnRh/NK4WTqLLwEQDGOz/0ZaGQzUABZ7veAtvQSLO/raAXA7X7hWAKvAmEZ3gDIGrzXhzRW8auArJJ8lUGg7Pah7npJdq6tLwQ7pMBVwJm81aTgV2s3AoGKFwWIJux1Ohm/1+ls3B4gimNrigrQ9vqwGxrhEDUXgWhN2up0dFwlzYDISL7tIhCoDlaAaOzWIiDA3pyOiUpnBcibMy4WPuNkkz3v07GazDqdhhMPoPFNsRoLctVSvV3c+PUB8NAoMiHPTUreBPYFEXhnNZMCPYJVP3aDG6CRcajZFNDc0RT2BXHiWcKlNFSgCrRDsB1AHm7QgUl2C9BIaLQw5tcBlKGs7wEgElOlIlGABAPXqITrQEKA7dMdOHspWxreHTh3Wo5nbLlXAabIFMCv3IqAjMzeF8LSSwBEuu0qQKITSAXYDqQAebdJhaYZVGDTS5UmJhSgmbDV6WKNJXucCpSt0JDVNu59wY90wnWApQMU4Ji0V4Fo/J5bI5XSCpDoDqQA2dit0BAg7XmJi8Q2ZekEWLi1wRfqSHzpgBy3AwJ0yzqG6QZozK1xLL0H0Ia+uQeEgAANvoi5mWpNYAM3JSfrYsbNgKPZn96HikBh4T11WuSKX3gpIsAyyn0cwEuil7hbZyAvRhr6EKlYFwCErgA0vOPY9w8gUXXfgYRA5F+AtJ0Aq/CGTufVFyw0qfApGjC1LAA7lglQAairtbUkBNhZtAMwDnK05CtfPq9LzY6E7V0A8rNuJCPvAudOi1ZeCKx8Dr7Gj5YdsAisROJ55ZOxX+klANJSVULWO9PMiQKUsQFcB9hpt8846EM1gYVGmjLxlbu1jdg8gDZORfeA2iaA9aHhFO3fZF4qeADvwKLTdgL4nHbnCeSs5UufHTPyKiGTHuRJbxQZiX5AnhzL7gdkLcU51+g1mQBuahLTAlVzLMtLSx8wwBvVAn0tnTrNsgIyEHGKJqoFprvBFZBGbvIqUMbSeAuwBf+4b7gF+BSCPaj/hDTpJjgvDnVrqB56MLHFr45rmVuA9TpjTmoxIfqGAHd4q1nqMLexnKUNMzqLpUPUQph7QbrdFc+8mrE5lFAD9aFjc2gb8OMkdnGTELmNC0cdklwHLKYTFxudCrCtVAH4Zt0B8BKXAwrABUcHwK1c0nRgSzTVeVZzWVaOGXZR+JVjy7koLUub9DQXr2/Hz4vyuAMWASbABUA9zSW+ALBVLw4RAoTzFrE4pgjg4HzJD0I9DVAQWHwBgm9xmBPAbx0XlU7zA2nPTECT+JFXBdihuvcBzpf82N6BhgBLDHRgylUwMdDHYcpVsOSGAvD0SY8ljwBL0MydXqSASlNyRizJNIfGIo3V/94EsESZAJB6WKTiSsNtd5Hs62trQoClExWAJyxVgKVEFYAnXRWAp3VVgK2tCsBT0wrAk98qwNLrCsAT+ArAZ5wKsEuIGVhccygAv0hRAH5VowLsMkgB+HWTAvALLRWgd84zwC/lFIBf+6kAE1gKwK8uFYBfjs5Cd3H9qgD8gnfWrYsr5NKwvHVxST2LxH4NzlfvAvfm/KJ93rL6VT4XWGEuFmAbex5T/gDS2MR0IIyKiwOIdJmRNQIKRAVge5xMF6yQ4HpJIgfd6um6JMOEoeGoDJUWQ+6ul7awLzjMA8dGN5Q0HZp6eQ7xkvwaEpaLAiAF4CVGCsCLmBSAl0mpAFP3CsCPlgrAi8kUgNckKQAviJuBRcmdAvCiPgXgZYMqwESiAvDSRwXgxZUKwMs3FYAXiCoAL0FVAF7kqgC8jHYGFoW6CrAbGotiYwXg5cwKwAumFYCXZCsAL/pWAF5WrgC8cD1Oqe9FafwMLIrvFYCX9ysAf0CgAuyJggLwRxAKwJ9ZKAB/yKECTMJ1AC7A+GMUBeDPXTqQEWC1kh3YerLTgYgAexTUgbP8WTw7EgDu8BYPmzoA16/05VS3h5QxfZnVtRHkr1ZLN9wf85dl8ShnfbNfjBmUwfCXcSLVIE75yzuxh8QSf9kXp5eMibc/YX480mOGqC64QY00z9UlUQR7liISNQG5PZ6OkY0Yyra5LJTh9Of++pFc1+0dVvzwCwpZCOGw6mg8ODc9QKP+rPjw1NEDUsSrXzumm2o+HUUs1XbT7Q1/5Wyx6N/SXWZ6I8BzVB6fRB9pgzueKdNfJ3GT8YHq4hoW9wpuLlEAx9KFfcCkC2+9i1gzwJ0jUeyn9rMonioGFkO7+T5+bS//eHuM/+npy5fXt/y3v8fH+/Kj14f/4f2/);lineShape=1;fontSize=6;" vertex="1" parent="1">
                    <mxGeometry x="70.05558765695673" y="166.04048288692763" width="1.1736007739654313" height="63.55671876724331" as="geometry"/>
                </mxCell>
                <mxCell id="33" value="" style="shape=stencil(lZbdUttADIWfxrdnpNX+XlN4D2YIjYc0YUKg5e3R1mOIlkSd3vnv88pHR8c7yc3L9v55MwV6OR0PT5vf88NpO8mPKYR5v90c55MeTXI7yc3j4bj5eTy87h+W8+f7/mQ/+nV462/4s3CNUEKnAr0vV2JCan+v3C3Abt6fAxmlGCAJWnWAhsoGyIKaXSCJAUoEeyUltGyAqis4QG2IFmiMFh1AVbIltYLE14FCyFYlJgLRdSITJNolGtiRKRGq7ZzqQE4jooBtI2oFO4BUkAVK84EMsrrmBhIHKGMjUkV1VIphXCGqW5zO6W1pFggITklaQK4G0CKzs0KuaMkCGSE53lARrZlU6OB8dG+TXUFbGfyBoGFG6V8zykPjCLFcB87c/OkNWoPh8hI6MBbQofJa3UdysGtbX3FZJh36YUg1GJySeqzYkr6i53KrBeXbjFYnBjQa6wBofHozmhCHoVZZHTN1QP4HkDima09Dx0whrm7+BBKyE0yc1rQ+i43ofHRBtW4tDHHaEMYwzrym7cXn1ar2AxKvKXLteWuLSODg1ZNsYgRfUc0TWz831xQcR4GYkZweBxmBBHEmRz0x/Bm0AY6garpBofHfpgdfO47HebdbNizn98cdil5adjdy+wE=);lineShape=1;fontSize=6;" vertex="1" parent="1">
                    <mxGeometry x="318.79091978106544" y="119.7255975774604" width="1.226645239140209" height="1.2304081763923245" as="geometry"/>
                </mxCell>
                <mxCell id="35" value="" style="endArrow=none;html=1;fontSize=6;" edge="1" parent="1">
                    <mxGeometry width="50" height="50" relative="1" as="geometry">
                        <mxPoint x="111.07" y="270" as="sourcePoint"/>
                        <mxPoint x="111.07" y="100" as="targetPoint"/>
                    </mxGeometry>
                </mxCell>
                <mxCell id="37" value="" style="endArrow=none;html=1;fontSize=6;" edge="1" parent="1">
                    <mxGeometry width="50" height="50" relative="1" as="geometry">
                        <mxPoint x="210" y="270" as="sourcePoint"/>
                        <mxPoint x="210" y="100" as="targetPoint"/>
                    </mxGeometry>
                </mxCell>
                <mxCell id="38" value="" style="endArrow=none;html=1;fontSize=6;" edge="1" parent="1">
                    <mxGeometry width="50" height="50" relative="1" as="geometry">
                        <mxPoint x="160" y="270.59000000000003" as="sourcePoint"/>
                        <mxPoint x="160" y="100.59" as="targetPoint"/>
                    </mxGeometry>
                </mxCell>
                <mxCell id="39" value="" style="endArrow=none;html=1;fontSize=6;" edge="1" parent="1">
                    <mxGeometry width="50" height="50" relative="1" as="geometry">
                        <mxPoint x="310" y="270.59" as="sourcePoint"/>
                        <mxPoint x="310" y="100.59" as="targetPoint"/>
                    </mxGeometry>
                </mxCell>
                <mxCell id="41" value="" style="endArrow=none;html=1;fontSize=6;" edge="1" parent="1">
                    <mxGeometry width="50" height="50" relative="1" as="geometry">
                        <mxPoint x="360" y="270" as="sourcePoint"/>
                        <mxPoint x="360" y="100.00000000000001" as="targetPoint"/>
                    </mxGeometry>
                </mxCell>
                <mxCell id="42" value="" style="endArrow=none;html=1;fontSize=6;" edge="1" parent="1">
                    <mxGeometry width="50" height="50" relative="1" as="geometry">
                        <mxPoint x="210" y="360" as="sourcePoint"/>
                        <mxPoint x="210" y="190" as="targetPoint"/>
                    </mxGeometry>
                </mxCell>
                <mxCell id="43" value="" style="endArrow=none;html=1;fontSize=6;" edge="1" parent="1">
                    <mxGeometry width="50" height="50" relative="1" as="geometry">
                        <mxPoint x="259.7" y="270.59000000000003" as="sourcePoint"/>
                        <mxPoint x="259.7" y="100.59" as="targetPoint"/>
                    </mxGeometry>
                </mxCell>
                <mxCell id="45" value="&lt;font style=&quot;font-size: 4px;&quot;&gt;&lt;font style=&quot;&quot;&gt;pehle 2 will compare&lt;br&gt;&lt;/font&gt;maxi1&amp;nbsp;&lt;br&gt;and so maxi1&amp;lt;2 so&amp;nbsp;&lt;br&gt;maxi1=2 hoga&lt;br&gt;and maxi2 pichla wala&amp;nbsp;&lt;br&gt;maxi1 ko utha lega&lt;/font&gt;" style="text;html=1;align=center;verticalAlign=middle;resizable=0;points=[];autosize=1;strokeColor=none;fillColor=none;fontSize=6;" vertex="1" parent="1">
                    <mxGeometry x="15.000000000000005" y="160" width="60" height="60" as="geometry"/>
                </mxCell>
                <mxCell id="46" value="" style="shape=stencil(lVvZchw3DPwavbJ4H8+O8x+ushypolguWc7x92lGxfGyMdsbvUkzbA5AgkAD4N6lD98fPn27v4v+++vL8+/3fz1+fn24S7/cxfj49eH+5fEVf92lj3fpw5fnl/vfXp5/fP389v+3T3Pk/OuP5z/nDH+/4byreYKi/2c9COO/B7++DX96/HoxPLgQtuHB+aqGl0rDW1fDxz57dDFcHx5dyjS8Cdmj634bnlxK14fjLQ/vYva0vr2GZ5fL9eHZxbYNL85HNbzx8CyEKS6VbXh1wavhI9Pwlq8Pr67sqjaXhRE0l/Zd7XLdu/O7qsNFsZDd9b6bGCxY2NhwjSwYNi1WHtPlXdsQXRDyY75IRp/k3mI+HxigTA2ASjpnVxXA2HIocssAGLsBheqisKApAOnQnFdHvfABCNh4sc8QwKcdMKRRA9D3jYNvS0rp5vqu9HRX6gvdjX0f4AVCEx7IL392APIyx3MAHOi+cTh8SRzN6eT2ZcXxG8JaIUDarRUnpAhrnc6C/OIRFM4Bh3c4AHEFnXPAcH53RylL40velV3pVJY5ngPiiloHoLohNi6ltSYHoLsodIDEvErDZbGsECDsOmRoJQ5QarxxObgqzBsSky1l7IM4cZCY/HzGMqiYBjKxH9GMICh0mBIT4Ihc54BoAFVShCnxfkRzk4wFEpfCgC52GhIXEqm7KqwVEmcSaUi/BAHSDihenjgIEAcDuvrCYL9UsDPiPEwBiI9EaRqYL5AOSUYgzEdRtMCWhCPDfImURowTG4f5iJyWqkUqixUdgCbNG/ON3WuUvr55Dugroh2AIR1ZMRtX/TLHc+rmF5k6AMFl8YVqNq5iZ4Qjq4bNVNAfcR4AoGUFoIlVwutMAGyl0iEvKnIAisxyAKiVASq1wGuy1lqlaQBAXKM2GeOq8Rq162Vti9ZeAOSyNs4xqmYCmC/vX2h+kbpzwGBqD8AQXgMAEqmBkQkA5sv7srYoTQPzBQLorBAA2riWJQ2dAjQGKGc8BdhtqWk2g/ki7UOVZxrzBfpCWxHjHADuTRlfl2EX83lapSGTptZPAEN4b7wmkbqXtQW8DrvX6DrG4TWtUo+LEJ0DIp+4Dk+lvnDkhQcgywMEwDAAxVvxmmoevUjON18ToC72cQ6o67gcAE2w5uvMACkS/BJ9ocsIhNfEl/BEmsbg1BJPsjjTeF0LA9Q+DM/xYeg4jdeUvI6wDP4cEJjo4olKLYchWHiiMhS8pprASFokhPHIAOW9xxHGD4DOH0bhCiCeRAWo7CqHrowNE0UBUH5pdKY/mKIqkQYXsPBEnbgxuFqHJ6rUOAHmC0XoELxf1OICoVL2+YnBALnVAFQG9BuAwABV2JjzmWUael2JbFysw1WEWaYbn6D0degoNzeqmWUS3vXnzl5uxA2AEUmVESagMEClfsOUEaa96i9Uo0NSjsbUdCdAL2szIt0AdGOuKmef+xqN0sq7HgHkclmF/75ySN+NaDeEMp6j3wBYA1dRaHC9ctyIpIMZzf85pWYrhjanaix83DDY9wFMqoWwERWgGvtr0joQBzlYVx2Gimm7lLU114J1NLFXhtLEudmM7goQjR+4wR+COXRJNiEAoCbE5EBqWf0Jy+qaKXKwDpq8DkNpvAy9k9smBngN4MxJuyYQ8LyvEqZQJVHkBOReJ2NXFL9yPX7mBEqkwjkyplBsAIkQbVyveh8Sx3Z8U5EmZH90pmfypb4Q2PUB4IXxIYMlCgQhg86RqQkBIaPOwsnNQEhVj0ee3/cTByFlvcWYBoRUfqnBC+3mDSFlCch0XlqTzLIlpqIQUrG4lkw1pMqWc4srKbmo6KgT1wJzrJYlKWverJJuIQNAeU3TyVwdJ5U1VSirxzZd1O6Kqg4av9R016K21RC4AKi+SK0nFU7F4gCwNVRVAqqFLwtASBUfqrHWqvvmAFB8gJCKHM9iOild5AECgEqiAKiAUiPHBwipyok1sGngm8q3Vs9sph7e9hqAmxBB0spiWvlV11tKY1eJbwbV26mr2rgAZUhrLYX7tRDSqw4YTGO3VgipAkoxO41vKmZcTG8H31SusnimPwAosp5N3lS0X8qd86ai+1MAENcoQTrj3LhwDK1U4Xi2pKmFfGh1Dih8QwoAdY8km52GVopK58ReA1qpXDFH7qZCK1VHyMEAisz8sucqLQDKvNMwFx6yPECpc4UTyyDvkTS+3YhlkIDC6W7Wl8mSaSwmXTFKiakDtFKdyARWueuQdKaYPNvSvIoidjp2DijQSl0XjEdn8wDcuCZVuEyWjosi5wDT4E06B4qR0wFopS4LzIuvdJmsLsp1Xmwx9UpopVpmobNpxCQ5X2hcuYNWallDZVYZvdahcA4UhqQ/IbPS0EpWmrO5K9nk5ZmQVl54ALRfCpHjQ9AxDgByM/OqojjTIZgbpVkGlOA54YBW6lpI8NyJDPrm1mBfDBnV/dDOhhF0L7WZeqssFVVTA5G0pPJR0+2+wk2jJk0us8vWhQNEWuK2MmMwt8CLrAEkbp4WWQaMfPcgy/up5n581heXOYdMskUZ+PZHlHc5Ard9dbfRXOnUzXrPAcDLdffc8PWyDm6yCS+dlCmze9nFPJldmZjnmxJe1tY8Xynzi/RfG95ouJfrHlkYddXds73r0r1nE/PScXhOmDQJMLVcL+vX7/ylzM3h+OPnj3K+PD49vf2m5/I9/4gHj95+AJQ+/gs=);lineShape=1;fontSize=4;" vertex="1" parent="1">
                    <mxGeometry x="56.073067673744845" y="141.12827795006982" width="21.017540038903217" height="14.823390532210965" as="geometry"/>
                </mxCell>
                <mxCell id="47" value="" style="shape=stencil(fZbbctswDES/Rq87JHgDn9P0PzITp9bUtTOOe/v7QlWjGrSzbzKtQwPLxZpTenjbP73uJglvl/Pp6+7n/HzZT+nTJDIf97vzfLGnKT1O6eHldN59OZ++H5/Xz69Py5vL07fTj2WHXyvXG7IulITf60oL6PJ35fMKHObjNdCh2QMNMVOgFgdoQq0EqOjJAx1NCRDRmwN6hhJAC6R7QJHjx4C1WLxKMQSE8DFRb7o2HXIngCB5XRcdiK6lIgcPCCopqQiyl0k3pe8D5oTh5AIKK0neNdm8kREaAQpKdEBVCCmpRsQBSLTpZT/xQEAl59AqgvdGMfcRwNzch5IitUYP4wTVjEh+wYwQ/cGZuwKf0eQnqBVa0pWbt6OOKKwJRRyABiUn19PYta0kAth+/1JiAyyrGBAg/iBMh0Z6aAKpI9CZmfLNUCvVtZhKPjcsmYQETUkoQ/Ypn9G7AJnRbCPsm9Yt3O4CokhDbCQ00kNso0pLfLLAR/DvVx6VaXzfJrSTlLnxdu40xsKYAEmhZNzMx35/k4wZ1brz9Uel9ccbF0VLZiKQ/X73HWR0cgA5QoaK3lPzvunMxH6Wxz9De/h/43iZD4f1wnL9/XhDsaX1dpMe/wA=);lineShape=1;fontSize=4;" vertex="1" parent="1">
                    <mxGeometry x="75.92791028545844" y="153.78199173611503" width="0.29456259724891143" height="0.359250970165896" as="geometry"/>
                </mxCell>
                <mxCell id="48" value="" style="shape=stencil(lVjLUtxADPyavao00jzPhPwHVSxhK4SlgLz+PnK2xuuR7aa4LabbMyOppR4f9Obt8e7leBB+e389fz/+Pt2/Px70y0Hk9Px4fD2926+D3h705uH8evz2ev75fH/5++VuQk6/fpx/TW/4c+EVJuGJJfz38oSp5f8Pvl7wT6fnJV6o6YBPVCLAJ6oy4ANTqoBQqDmCUgMrVDtBGwmFUgEE8VuSQBmcuSZK4wp2aLhCpRRHQqMk+4QWKOWBoEoRrNAixTFtWig0QMjU0kCI3E+1Tai9DmZCJA77hMBMPO4pFioMlmikdawliwNYwg5RwkhIFBQQhIJbofZq2c5cJikDIQdikIjSKI5bykoF1bfV2iignCkCwvQ+t6UGU51yj0kn2JoN5CE24jHVZS6vbYIpaMx0yf3JJsGKU0cFWdwCkJyKj1KdJbJJkErqCDgPEr3kTOYoStfGOBOsVYEVpjY0lkabm+02wQQ2tg2r3wTK23rEGFVTVAb6sbRlj4dH7jm69u5Z49sn6E1rsUAFpcpUk8ejpsSkqwMg/XPX7oy3zpwgfqzrNk+jHbwLkOEVJIB7Omd87uLeiafff+4R2MGX1ftRfIRiXOGRjikEjxcgAe39f4HPYD+Rgvh4BjD7I2n0eORGom8SVg8K9h97NBb4BvKllFf1j8a4ElePrzhf7PEN6CWs4t+6Ddirt+jxBddz8HgF9WN6ST6e5VN6rB/p3cWzQEPB3oBMNgm+v670iGb3Z/Eh+AZRrYDAhoL5n3EFG0oBZbj2jj8TIrTXVnPZjT2FPlBM4mMR2ehmNMVWVVcqvINo6kW/sB9obMTg69QMDoqSGde6slAZCDlFP1rNpDHYUpZeCAsbKMhomndwK2jv3nsXKe8bmTIYZlYIMnbfZK9AZrn59mt2HJWG2RmnhyTQ1bVE2V0pavfbewTXsaO9Al1zlJIjCL4XBT8DtfVLxt5l0A0dq9+Ir5su06aQiPIgJO66WSDBzLeOZ5isJOjbV3s/O0F7BRDQdIFw1jHBTBfptTkTBIbV9OU13e8Y2/js/b5QAWowvBaHR6Ntwo/7Cb0l7OJdhCji/bjREKAVN3wd98PQeuXir8rc63YP7xLG3bxt46vXDb5KGD77D1MQP/fbxX4w3sWToXU3fFvFE0nmsx/WPsTbj+tXvIfT09PlI+Dy//6rnz26fDHU238=);lineShape=1;fontSize=4;" vertex="1" parent="1">
                    <mxGeometry x="74.38312282996026" y="154.54181070529222" width="3.139344655242684" height="3.505694079446252" as="geometry"/>
                </mxCell>
                <mxCell id="49" value="&lt;font style=&quot;font-size: 6px;&quot;&gt;maxi1=2&lt;br&gt;maxi2=0&lt;br&gt;&lt;/font&gt;" style="text;html=1;align=center;verticalAlign=middle;resizable=0;points=[];autosize=1;strokeColor=none;fillColor=none;" vertex="1" parent="1">
                    <mxGeometry x="110" y="120.96000000000001" width="50" height="40" as="geometry"/>
                </mxCell>
                <mxCell id="50" value="3 is bigger than maxi1&lt;br&gt;so maxi1=3 hoga&lt;br&gt;maxi2 ab pichla wala&lt;br&gt;maxi1 lega" style="text;html=1;align=center;verticalAlign=middle;resizable=0;points=[];autosize=1;strokeColor=none;fillColor=none;fontSize=4;" vertex="1" parent="1">
                    <mxGeometry x="105" y="155" width="60" height="30" as="geometry"/>
                </mxCell>
                <mxCell id="51" value="&lt;font style=&quot;font-size: 6px;&quot;&gt;maxi1=3&lt;br&gt;maxi2=2&lt;br&gt;&lt;/font&gt;" style="text;html=1;align=center;verticalAlign=middle;resizable=0;points=[];autosize=1;strokeColor=none;fillColor=none;" vertex="1" parent="1">
                    <mxGeometry x="160" y="120.96000000000001" width="50" height="40" as="geometry"/>
                </mxCell>
                <mxCell id="52" value="" style="shape=stencil(lVnZctw4DPyaeUWR4P2c4z9SFWc9tY6dcpw9/n5bNUWOCErtzduMxCYJogk0oEv48PPxy4+Hi7qfb68vfz78ff369ngJHy+q1+fHh9frG35dwqdL+PDt5fXhj9eXX89fb/9/fNlGbr++v/y1zfDPDecl1A2k7t/bAyfx9uDzbfjT9Xk3XCX4aTgetPPhQbKbhgep/nx4lKLT8CiVzJ7Fx2l4lqDnw4vUeTgeEFOb5DINbxLy+XDvJbVpvHdSAwEESXkGqMRIAKm/HoAgjRjsi+jsLUwREgE0cbO/fJZCjAZbSpgBVXwhABWd+YY1EyMcGJNmxjlpbEupE3gAlBoNGuhsNNYsDIBTmj29rclugRdvAIUyNQSJ87Fu5CNcCqlflHHRvERHANU6DmtmskL0UubrELIosSEmcbPjsGZjK1QJ8wpYsxI/JC959nREACHhJSGczJ6ORSIDlH6DB6BJI8eanQ0aCXeasDWHfogDEPkKqUehASj0xuXxegBw44gfMqgxcyn7TpbjuOpE5y3BqsICsbdpAVZVYnRRSz5YxSJfWaJGblKJH0rsuWAkB0/jUknS5i1hTWU2wA/zKWHNzGyo1tMl9yt1DIBfZ6OxJiNfddbTWJOlrKri5lPCFCwI1GBtqJ7muDpu8AAolQx18QOmoFuCH+YbhykyOdZa7RWtmcal2romGoBKqdFcJ8IAtK4NjgHeGo0pGjnWFuyWGk+KLVpqYIrC1FK2QaAhATAbYOKsZlqhfgDABAEAWKgEoM3Ru8EPTGA5Z/UPECwrbkvMFwJPHAfUBcASNV7nZgEsyW3zRQtgsRKvTYLYncMxoh4Y0ZjrqiX4ZgRjU5W4ABLfki7H5PmW1BxTparvYIXKr9BqA/hKZOKdazsAy6ObH5oFJH6FfF0A75ApWUDmdC3OAlj8PrgQtQfo0yu3+IGp7+Nb/V7gWNinjK6tV0k7AMvtbUiwHYDpk20DywrvkGmNTI1fOZN5ty1xfv8mANJ1ifjKuBFskYIp6CmplRvIY5GIY6RNe4NClzhnuT2aFSBmmcaqtvbDmsrUQ+lpc6ceGldAxgZMwaQrBJIRxxA0zA9QcdlsKXIFtPgBUyQmyry4RfZ5Qu/SFp3oaKcCytaU1JhC2QrgphH4o4F0DMi2LYAnLEFsNcdsQ+H1KyoME1xRGNEySBeAp/QuS0mNuokCFumKyswRG/KQOwMQaT9nq/TMlrjROVutmx2tX7EBW7RX2gTFBpIBDPV71hYwvZAUKJdQ06sBeNoxStGGmQhxwAAggum2ZJp3Y+nyaABCvyHHgGi1Q3S0WRx9V2yjY1Q6Hc+aWKYBHBIVfXhtjjUo7UnhtTE6ONqSxutkmomVSmO8DqbVV2jk02wzkCbeQY02COCJZx3UYDOQ4hgIW9X3JDsAYCsRWOp6kbTrArNj9bWzf9dnZond555vBgBxidV+sRcku155JoHMq027mIKRzzurKjEFbTz0kn6M91Q55EUY9xr+OALYWoAXx6FTYERVWsGpbfEl2nRENJrPBpKDbMbZHg4XYa67/j48ks0s9YLvR/X/hjuan5ZcMHrGZ6ZGMzwSEiy9WEczk+v97/twT0jveqS5D2fdDmfLIt5XcJbwjl/ZvtXd3inF1pMhXv3ND6PvDseP+zfYb9enp9sn3P17+80Wj27fe8On/wA=);lineShape=1;fontSize=4;" vertex="1" parent="1">
                    <mxGeometry x="149.58425125088843" y="134.26648610365544" width="18.87701149526354" height="13.342388868830946" as="geometry"/>
                </mxCell>
                <mxCell id="53" value="" style="shape=stencil(lVjLctswDPwaXzEkQRLEOU3/IzNxak9dO+O4r78vVA8VEbI3k5ssYyU8FgtQG3542z29bjcpvF3Op+/b3/vny27DXzYp7Y+77Xl/sasNP2744eV03n47n34en6+/X58my+nqx+nX9IQ/V5wq1TqhUvh7vVMoyP8bX6/2h/1xaV/7390+RsoBAJg0jAB7ZYSAwgMgZSoZAjgPAA4UsEuiI8CCZgAwB8YYcqCIAIXYAQpVnNY4Bl0iMQZoGwGCXRJqY+FqopIAoBGXESA4hkZxDFoS5QpjSGMdRCijNzDFOABaJAVBt9afNwMKlQIAidKY1ukRIEtizBn7RwNlwNZqhRvTqhGmtTSSkRqaSBAgeC5NPQg6LhvVXAwWVbsP4ORbdColcomas1dSBR5RzCt7kFTzp3r7DJ4fKTn7RhXYB+KRFdZNFfgz688iPxnw1ComvgAJKFjwvWwKhQqWurwtGBFBvbgrw4JyBeSnUFRvz8CfuvLfng/8aV0Ll/6jkdCbfJkfkP8YOn0XBYhAJwyQHYMqjNgATrqMQiilSsmFYBQFHgnpugWA+Jq76u0VCF0mcWM84CnLK2G0uY8y1MNbBIw0IlBN3j4AlQt+cbGKNdzDzp8C95ZAxWlEhj1v8TqNYDg4eKUpNgaAfaa6GhtoUfusvS1ZfrY2OJd4RekmnYS3PRI/KluFlCt15dIc1e0myL0HZ4AtkwAgwa9dtjGgPa0FL12iMK22oOTxDdOKgVYW8YA6L2L3AGmUooqZZ1l3C7btmgpaeYphLFxJ/Z23Adk3T65wgFuZZEyrbeQNubRaHXlO9L1NUEZ9MUkW5FLyCmwtFYCimksu6Nh6h9zLkrqzF+O0ruZs60HdnjnB70VGbmzfRmJEfFKbN91uj4tmClTV2SPBMAV1/piII/viNf6Dg2P1+bGpjvIjvdXf7TMo8HTk8vEqOg8pRccguCOYvTtKJOjPYsTPXYMJoV4eMyTop78+fGhvF++fOl72h8P1S8nyf/9pxG5dP6vw4z8=);lineShape=1;fontSize=4;" vertex="1" parent="1">
                    <mxGeometry x="166.153998034325" y="144.49791258536754" width="3.5346171969985853" height="4.84691004000796" as="geometry"/>
                </mxCell>
                <mxCell id="54" value="&lt;font style=&quot;font-size: 6px;&quot;&gt;maxi1=3&lt;br&gt;maxi2=2&lt;br&gt;&lt;/font&gt;" style="text;html=1;align=center;verticalAlign=middle;resizable=0;points=[];autosize=1;strokeColor=none;fillColor=none;" vertex="1" parent="1">
                    <mxGeometry x="210" y="120.96000000000001" width="50" height="40" as="geometry"/>
                </mxCell>
                <mxCell id="55" value="2.5 is lesser than maxi1&amp;nbsp;&lt;br&gt;so maxi1 remains unchanged&lt;br&gt;now compare with maxi2&lt;br&gt;since 2.5 is bigger just updat maxi2" style="text;html=1;align=center;verticalAlign=middle;resizable=0;points=[];autosize=1;strokeColor=none;fillColor=none;fontSize=4;" vertex="1" parent="1">
                    <mxGeometry x="190" y="155" width="90" height="30" as="geometry"/>
                </mxCell>
                <mxCell id="56" value="&lt;font style=&quot;font-size: 6px;&quot;&gt;maxi1=3&lt;br&gt;maxi2=2.5&lt;br&gt;&lt;/font&gt;" style="text;html=1;align=center;verticalAlign=middle;resizable=0;points=[];autosize=1;strokeColor=none;fillColor=none;" vertex="1" parent="1">
                    <mxGeometry x="260" y="120.00000000000001" width="50" height="40" as="geometry"/>
                </mxCell>
                <mxCell id="57" value="&lt;font style=&quot;font-size: 6px;&quot;&gt;maxi1=3&lt;br&gt;maxi2=2.5&lt;br&gt;&lt;/font&gt;" style="text;html=1;align=center;verticalAlign=middle;resizable=0;points=[];autosize=1;strokeColor=none;fillColor=none;" vertex="1" parent="1">
                    <mxGeometry x="310" y="120.96000000000001" width="50" height="40" as="geometry"/>
                </mxCell>
                <mxCell id="58" value="" style="endArrow=none;html=1;fontSize=6;" edge="1" parent="1">
                    <mxGeometry width="50" height="50" relative="1" as="geometry">
                        <mxPoint x="410" y="270.59" as="sourcePoint"/>
                        <mxPoint x="410" y="100.59" as="targetPoint"/>
                    </mxGeometry>
                </mxCell>
                <mxCell id="59" value="&lt;font style=&quot;font-size: 6px;&quot;&gt;maxi1=3&lt;br&gt;maxi2=2.5&lt;br&gt;&lt;/font&gt;" style="text;html=1;align=center;verticalAlign=middle;resizable=0;points=[];autosize=1;strokeColor=none;fillColor=none;" vertex="1" parent="1">
                    <mxGeometry x="360" y="120" width="50" height="40" as="geometry"/>
                </mxCell>
                <mxCell id="60" value="maxi1 and maxi2 dono&lt;br&gt;bade he 1 se&lt;br&gt;dont do anything" style="text;html=1;align=center;verticalAlign=middle;resizable=0;points=[];autosize=1;strokeColor=none;fillColor=none;fontSize=4;" vertex="1" parent="1">
                    <mxGeometry x="305" y="158.05" width="60" height="30" as="geometry"/>
                </mxCell>
                <mxCell id="61" value="" style="shape=stencil(lVrbclwpDPwav1KAuIjnbPY/UhVn7VpvnHKcvfz9inLBDM05PfbbeEwPuiG1BHfy6efDlx/3d9H/fH15/vP+n8evrw938ttdjI/fH+5fHl/t0518vpNP355f7v94ef71/evb3z++9JX901/Pf/df+PcN510KHRT9f+OL+PbF72/Lnx6/L8s1LcuDy2R5cKkty6Or6Xx5dMEvy8XVwpa3VfbsvJwvF9dW2YtL9Xx5dqEuy6trer68uJyX5c0VYhl1frVMCC628/VtGG6uF+eJ9PZzabVlSE6Zq+z3ygow+2QCSK6sBgo6fuIYUNCiobnMANVlXcPHu0Y8bAK0VekeUsRK9nthVdqiRFjIBSdxBSSXWEhHPGAWWCzsTIC0errHKYmMiwATUDkgY2hYNGZPAMWJrIDGAdXF1aziOUBdWD0tgQOaC6tZJVKACQDhLXIL0NYTKokDgmtraEjmgOh0PQ9SRrAcAywdgpWqE5KTTOKyOk7UCQk+kziBlRoHFBfXtJc8B1TnV8elcAtQVz+k6CJTWkfinQBxgSQyUzGtfkhpFKJDgKmYVk8nqzxEpLTVwVSoSKYiOC7NI3UMEKdraCSloZG28pbsTEcCKKhDNjJAkrFJrFCeI+UWJkBYlc52RMkOJoCASImKlMNQcQKK88QPeSaVCTA/ECvlWT4mQIeQxwALNRCpDSZxBgCzFk+ZRs5YgYqZgZQsA7Q1NArPrWbEDDtYESPBZ0b0sEMaiecMUFazlkzJSbc6iFRonTYApPtSKRMwN0EyLuoi2aG7CQCNUj5zU1lza/U0lsxNdY3Wyum5uUkBEMeex4A0+NcEyEjPx4CCnq6JUjizelj9UMvgaMcAHUacAHMc84NVNDCr0rLbrb4SrNpo8NWAIqmn4W1WB6U1UJJoVverHzTS0DCArkqruMh2SHjiNNFUWbc0YwAlWaPOEjgBmVYgAyhYiVfRumUNAxTmBx1pawLqSM/HgIZMwACFBN8lECbA4pdYyQKhNAQo28HIzhqteqMTNTetOjRPs4YZsUKrG2jJukg8AZapSBIwARrsIKMmHQMilqyWadZoCcl6MybLRLKStaZK+yYxQNuUbs6TWLJ/Q/PaAaSKdkBGQLgBaAgQIlLwftO60cR0uEXhZkLPzcJ6CogIaOQEdUdsO9BgalgVr+xwhqibr9mwqBtFP6hE2XZghbc17IIuP3EK2F19Q4dtBxZNHbDHK9ehfvRE1LIBuEiY+9roT08Bm+NYWex+3RwXuB/atgOr1CeH9MPHOt84dJtQNIMfqa0sITcs7pf09k7XveeUbtHRbsTfxwAFJ9JNx6ztrAzpyuOsqjA6YIUO469QhmKlFIhfL32MP+hW3WUcwzM6AHNgE5LxOCMcFZQONNPoNpruDIUBAuYy40Bs+K1zaHUFYINjI37QE6hSllUVZxU6rwDOyCtcKHRqybhowWg1AN2hYBZQ3iMbxYexrjH2ykRKOBgw37PSa20Kst1EKU3dZqgWLMK6jjgKwnXnxEQKOJVSPrC0dhFm2T26WAfbxpG/6i+F9ciKIll0semgNdXQLlp0sUJaMpIs8z1L3yXhNMR8z0KjCBIa833mw40MOkTahZeAzZy5kprV47DPXBnZkGmjTN2VbP6oOMs2VwofY0HmK7zryBXvdvrciwHKJlKm5CHPPul6dsfnj3WfDnIAHCDzPRUpbX4IfJwoWKfN96xOGwCm5eZ7duJyxCszcyWr0zlsg2MjE2wHj37ohmZ3CooczuzGDlCqyNe7GYgOqWBRNK2oSNl5AHgukmCjlXjPkeJ286K0oPTbKNih0ov25Ac7n4BMSWK/UfMIYD2HKM6MUqIX7TKJwgQIZTNSkEv3OzZ2ZVYwL5ndKCDjSLTbjemQ8FJOeBskgkqL0vG6RKSh/TaVvR8JSLBu3ddur2UkU0DcRkDCc2tUHAEJz6393QlYKXJA3d7kBA7YXnmI54A8rk0GwMxAAQljKfIBfpQNUDkg4pnubzDYc4SAJcu0YiQxerwGv2h13LMrBp9pxS6pwyQKExAohQsFQ6M/DiOpMiS8TQ1Kp15he7AV+PuF/iYKXj1l+oCs4YMhk5GNBCpeZ5mIkbFWbBODp1epCUuuDgscJwzMSJVHHTbemTKGgNko0b4+DEvMc0znhx7zdaT53Y+p2VjOX3Z5jE1P+/ltvjXvXt+7nHl1O7s8wXlsvjx9v+LxxtTT2u3xIZSnnd324M3TN5PzNejVchIzGxfylNl4fEzn6Sx1G9J4Skc//LT1xnL7cHlF++3x6entEe71//HVrX319mJXPv8P);lineShape=1;fontSize=4;" vertex="1" parent="1">
                    <mxGeometry x="406.2441444392175" y="62.59186895448261" width="90.9547013906707" height="36.676642871141546" as="geometry"/>
                </mxCell>
                <mxCell id="62" value="" style="shape=stencil(lZbdUttADIWfxrdnpNX+XlN4D2YIjYc0YUKg5e3R1mOIlkSd3vnv88pHR8c7yc3L9v55MwV6OR0PT5vf88NpO8mPKYR5v90c55MeTXI7yc3j4bj5eTy87h+W8+f7/mQ/+nV462/4s3CNUEKnAr0vV2JCan+v3C3Abt6fAxmlGCAJWnWAhsoGyIKaXSCJAUoEeyUltGyAqis4QG2IFmiMFh1AVbIltYLE14FCyFYlJgLRdSITJNolGtiRKRGq7ZzqQE4jooBtI2oFO4BUkAVK84EMsrrmBhIHKGMjUkV1VIphXCGqW5zO6W1pFggITklaQK4G0CKzs0KuaMkCGSE53lARrZlU6OB8dG+TXUFbGfyBoGFG6V8zykPjCLFcB87c/OkNWoPh8hI6MBbQofJa3UdysGtbX3FZJh36YUg1GJySeqzYkr6i53KrBeXbjFYnBjQa6wBofHozmhCHoVZZHTN1QP4HkDima09Dx0whrm7+BBKyE0yc1rQ+i43ofHRBtW4tDHHaEMYwzrym7cXn1ar2AxKvKXLteWuLSODg1ZNsYgRfUc0TWz831xQcR4GYkZweBxmBBHEmRz0x/Bm0AY6garpBofHfpgdfO47HebdbNizn98cdil5adjdy+wE=);lineShape=1;fontSize=4;" vertex="1" parent="1">
                    <mxGeometry x="497.7816757117939" y="98.83035813107415" width="0.9144082691772465" height="0.9172133678560964" as="geometry"/>
                </mxCell>
                <mxCell id="63" value="" style="shape=stencil(lVrLchw3DPyavaJIgs+z4/yHqyxHqiiSS5bz+PuA2XBm2ZzptW/yGpghCaDRaM5FP3x7/PT14RLct/e3198f/nr6/P540V8uITy9PD68Pb3bXxf9eNEPX17fHn57e/3+8vn676+fumX/64/XP/sT/r76OXG1OwX3z/WHVqXpf7/8erV/fnqZ7HOe7YsUd27vJYB9lpiZfWuzfRJHnh+kptleRcn6VQo830ts5/ZRapzsa5NYz+2zOD/bF1Hy/CJBZ/skWs7t6zi9zV6pfZMC6/GiZP3eSQuTQ2n0gHwQDw5FMomAtwXPSyppBOXYIUpys4NKYzlkz5sPtQQJnjgUjFpx453HDlVCmRxylcre0CTNcctFPDklK7Q2LykniYk4BNG5ErKO2jh2sEOcjzXbKZE4hCRpPtbsRnUcOyzJnSyX2KY37NkcqjiyBzU4mss5ZcmkHDSM6t0cEq0HjQNONodIA6dZPCwpjIM+drAtzqmRvGS2pCYV3uAopkaPIBCbBBK4qJLm9I5VPEnvaLk5w2TcSurYoWAB2SNY37EVuxlmYpRGUsPOpDh0YEuyMAXYg4onuZSWXhJ5AVmqhTn5LDKRvSFLgSVZwrM9WJhmB90awLFDw0grB7LsxcEbCk1vAxVADauQxjqohWk+Vk3cIUkO6OBILnXonSvOqvz/7Dp2qKMgN4dAl2TtA0BA/eirxw5eErzB0fS2jgYgYA4svYvB1lwPxg1YeltXDvOxGjwzqCwZ4d4aQCapUZY4GH1iDaXUZQ958NczhwZvMLhncWhY08YAE8HW6jD5rK9WsmnjXxEcAmUzNSBUmoNjFFERBIxVs0ibQ4M3uPHOY4coZT5W4zeRBM5IbZo3bQwqM4eMmzaOVkik60LhfKZAZg51ziXPaWitSOGMmBZSojYpKGzaOgbj6g6ptJHrSoDMHOqMGt5zB4OZOb2N77NNt4D0p9FTtekL2oO1E5LcZp9n1looTraIwFoGezqzhw6aB+Yc2xvozevZfjizh0qIEkn12/Sr0HpoHZg9jGNhzAXH9gULzcYztn4bZKAKBjwd2zdMIMfPv2HndHScN/tS0J6vp2aw9/z5MGE4Ht82+vxuz6Yw77b97Q6MzPcX4IHSALdBC/aA+TsHBBBBOWq3x4Rg+kUP2JJADIHaILA//Hygj36Q6DN7EEg8nVy6fYDzr3w90YN95gUAk5GjnbJtastNgnL7hAXg+PoBcDlt7PHF9d8p4IoFxshKz2c8z3CngBEguJ51VJBM2jlyYKS0rwgzjmkW6479vQhXrADlGfdz9nUg2t4yKEspgwHsLYwJhGYfQH0Yc8JZy8sK9owft4wSdqIzsrVsGHkzR6BtmNwpB0WguEi0g4+fUSDQ4Wxo4fYoqVOdzyhcgo7heICNQwIN9VJYj/E4sfs7KeRQAvbKuffaBeLQeM/IeoG2l4ZUeOawzg+U3Rccj+9NKHnpTJU7pKW1Nj40RSQ3vdmwGSgOcngzKbLarIt23/klW1LA9he2CeFsPAaC2XVqtiSHjNHwguVSWRhUF7aZ1NIGg7hRHZRJLRWVxD6lMJmiiDp0oELIMkYYaDDQK0kUltT4vVTE9NZN0zp2UBRo1VPqXjymd9fICNCXBTW6CkdOqd/JwBt0sO0zYRAE2q4ksjcsN02a6TyUI85byoXyHLAbauUOHmvaHNhInZYRTRsVEVLFGTm6QRLPZGy4RI2eXhHudzI3ynpiMraiGhqV6nwpYD3ESHlncphLkadGbCjmRC5jxzIucjeHTOvBnpdgD5UvSTHSfZHs0sUjlbRjCGxJDrto8vS63HLTz5u2yLDvCay+ACot9iy9NWIHsuxikoiBCkyoiRNEA0bgS6nQmd+gF2/8Gh0ZwpIa2fGL1ISRzlwYtJ4JS8pKJeCwXOsYtDFlcJ/DNwd+rH6RgnKl2Gp0Cu52c6O45BcKV7h4YRwSqIN1Paa+7Cx1c4hUDzUeDGTdWj3jrX659jf2kdgePF66VD5BL3SpX0gw2rp8cRIpZhSMWtf+WQvFmwGj7mw9CXG4Tx+k2OLyRVSgX9go9tvG59uALMYGTAZgCyG2gZpJtG75gqrSZutQ0Gp8nnRIPXdN9cx+eT7rgw7ZxY0ic+IAVwJ3X+D15zaACdEoOXd4BdI1NP785YCYQrXoU7vm+cP2bHxxSOQbvyg+2i+jIT//yeE9e/tj/77xy9Pz8/XzyNv/x+8h7afrt5T68V8=);lineShape=1;fontSize=4;" vertex="1" parent="1">
                    <mxGeometry x="409.59680321730093" y="65.47817467550158" width="83.79377670124153" height="34.39713135404004" as="geometry"/>
                </mxCell>
                <mxCell id="64" value="" style="shape=stencil(tVjJUhtBDP0aX1W9t/pMkv+gChNcIZgyZPv7qOPqAak9b8whNzPojXbpaXbx5uXh9nm/C+7l9XT8tv91uHt92MVPuxAOTw/70+FVfu3i5128uT+e9l9Pxx9Pd+e/n2+7ZP/1/fizv+H3GefI1w4K7s944Ny/B1/O4o+HJyXOyYh7IB7IW3Eu6+LJGpMo+3XxTE2LM3leF2dK2hgfKaR1ee+H9gXQKAYAyBScAoRCAfgr78saECNlAJCAxKIj5Cg3AGhUtdOpkgMaYqacFSB7akBD8lS0STkTgyiJAU2HNTPFCNKcKBhAIwaA4mymi4caSqGk81ACcV4H1CUmC2DJzGVAJR81oFAEtc3eJq4wMapuibqOUpXuAz6wFLN2umaqIHEtjGJeAA22c0tUtA8cKQKTWhnvWwAVRqnxqP4BaDjTTSzWM0OMrCCsAmhBAzI5MDU6oFhARk43W0sShgAA3i0zekFIU9ePIhrKtRjFGsBUUSYEoOeGPEEd0QHeAhhrMMXxzq1VxKRiw+taLSCDwHZAtGFC07IDvAWgJdQBU+YSdtpqKHCnXPBBRsmGhqnCw0bmjEkJjtc51b1LN3rIWcBWfWfrw1a5sg0rKr5LPVeogtq43KVlY9aY0SEkZ8MLE9g2ONe1469RwQXObAENa+D4fwGyJJJNREZhLZOGgEe4LDodJWYqqIVklWoNsr4RkZZlHXRY2Y2CXKUDZrvL3NggHNqkmgZ7X6U02mlhRWhYXiBNbcTtWlomDB/4cIH4FZiHTi2NBtnuiO1O5LVESMA7PdaDRrgo0tAJuPYhV3hEhGng5wA5UD8izE2QBytaO1OSXouR4fyWQ8gcctHDHSSnVtLlHRKcfGwrw+OGk1NRF7fcfkg+2cPVY6oRJno/HLrujM6QSE9Heh7ba0082reD9LpRj2/iBTSZG/fjmzha/iKujZHEYmO8EXeglqeNGUdtXyce4ACajPGQVEyuegqg06dAOshxpjS5DVdNETg4dj78HWhDXH68fXK6Pzw+nr9Yvf+//UQlj86ft+Lnvw==);lineShape=1;fontSize=4;" vertex="1" parent="1">
                    <mxGeometry x="20.01534543269804" y="30.758552426753" width="120.10038939528518" height="6.913878230302833" as="geometry"/>
                </mxCell>
                <mxCell id="65" value="" style="shape=stencil(lVdJcuMwDHyNriiS4AKek8w/UhVnrIpjpxzP9vuBRiPHgK1O5SbLbGLpxqKB7963j2+bIYX30/Hwsvk1Pp22A98PKY377eY4nvRp4IeB754Px8334+HH/mn+/fY4nZyeXg8/pxt+z7hMPU6gFP7MLwKV/u/Ft/n4btxfHI+FipjzMVCr64DUqLABJKYQ1gFcKTQDYHWprQNyIckW0CmkdUCpxDbmrABZB9RGORhA6dClJlSTAdROAgBdKHYDkEq9AIB6bIMWocQQUKsB9ACzpIBueeiJInapOwuZGAWtLlkeeqWMs+QtaNAoBqFg06o2cwaAtgjhQ94BylVddkSoCUEmijcxhQXUN2XRqk+9LBEAmJpjrsCiVkBxAF4Uv2rBuRQXAa/F8F86Z7n2zwBisySNKnJJu4AVk1YQDLr6tqGABDqZZl2aB1QEEGpXMTQkDRWn+CwxkoaW3BUPGRTEhZovqK64bzRXc5ppRESn5KpamUNEiO+uekVEFrQdswcIpprFAzpqNOUGgHFR81WjQYBWfZYkLXPv9gzKXn0t4SmnvNoYaqQOmM7s+0xJlIG+WQG2qPUKAXLVZaPZLHFZFH9brom6rVFdHjoIWieUVUbMi1ZuG/DSi9oKwf3BB6Aeop4RiJ0/egO83+0+HQ6fq2JusKkGijabBXb5sAzjM1vUQC7DMsXOXFFC3FK1zsSFuxVms99TGWmTUnbHUSKz3xMCXAi/uDR/elwfPvbz53G3m9f7y//9Pq+v5m8BfvgL);lineShape=1;fontSize=4;" vertex="1" parent="1">
                    <mxGeometry x="136.8741551739381" y="33.25714779746846" width="6.282298783356634" height="2.940124962588594" as="geometry"/>
                </mxCell>
                <mxCell id="66" value="" style="shape=stencil(lVfZctswDPwavWIA3nxO0//ITJzaUzfOOO7196WqUhIgazt5k+kFiXOXHPzD+/Hp7TA4fr9dL18PP0/Pt+PgPw3OnV6Ph+vp1r4G/zj4h5fL9fDlevn++jz9fnsakePXt8uPcYdfk10tVHm0cvx7WsnE/u/C5wl/Pr2u8UI1Krw4KrxvUCI5fYC0IwUYMKWqDJynBFzKgUrRBpWk7BukQi4pAx8oO2AgJDrowJRBDDGQiDbI5Ou+QUgUdNBti5D2DXyhlJVBc/Lfyn0D6XWdDVodQNAt60FnKadeyrsGEilql4qnEsEJ5HXdau1ZuH9A93eFr8ghCls82J+pBovPwH+muNlf4P5mEtrwoaZgW7Gae0R7eN10NfUM7+BFF7hGCiCfTEFPQQ0UYX6KwftOHjv18t7iU0D4ssWDEWj9xtZ/RhNgiajhE5hJR3WTzwiIyxOb/RNFEG/Dm3zmPnE7/tj8l96xO/htPzvQn454M79ICoSijle4tSw0EN4cAArQlCNafAA0zT28VYISHBjOtgCYINj4nyiDhuBNQ0QoM0zeEFaTQojPYvECCeVjeAlWWHMhRhPjrLBmhpTVlD0bFfPwBD/r7iysEdYsxM7hs3S3qUFa7yjrrggCaTTWfv9ZXT/QXKZs+8gVKAS5SbfO0sIF9w2qlQLJsNKLsq+ugYirK3fqnAtHDhR6pDaN595be/iaDR5x+yK9KzwoWsMXMXik9ctVYMEjrm54Q76N/FA+q+06gRUerz6aKxzUyhU1z10KxWk8QBcswB4dqVwH3B4KOACjHhFe5kbt0uqUKOECf+wh9F98+1heXS+n83l6tK3/t6+0tjS98PzjHw==);lineShape=1;fontSize=4;" vertex="1" parent="1">
                    <mxGeometry x="134.27545717041926" y="36.62062086759403" width="11.826274640932917" height="5.721652826397158" as="geometry"/>
                </mxCell>
                <mxCell id="67" value="so finally u get the 2 maximum people" style="text;html=1;align=center;verticalAlign=middle;resizable=0;points=[];autosize=1;strokeColor=none;fillColor=none;fontSize=4;" vertex="1" parent="1">
                    <mxGeometry x="435" y="130" width="90" height="20" as="geometry"/>
                </mxCell>
                <mxCell id="68" value="" style="shape=stencil(7VrLchw3DPyavaL4AF9nx/kPVVmOtiJLLllJ7L836C2Ohs2dXvuYKt/0QM+QBNBogHOK77483H2+PwX35fXl+e/7/84fXh9O8Y9TCOenh/uX86v9dIrvT/Hdx+eX+79env95+nD5/fNdt+w/fXr+tz/h6wUXooTSUcF9u/zFSXA//vDnxf7x/LS3r1LyZB8kxmP7GCXrZB+leWKfpaXJXqWQ9aiTOj8/SarEXqW6yT5LCsS+Spr3W0TJ85OX1ib7KqrEPomvk32TTPabipTZX95OoBBAG+e9AQI9oexF5xPyKom8IVsEwBuylEYBeT4j38SxJQV0QvCSyKkaIIQZYGHHN13nPVhcKIlTA0RYUh2ReB3gpMU5Ebx4DkjzkiyXItuDEzcvKSYpJLYtNDK8oYonm+6A2XGWfoFkfw++Obo13NpDAoCKsuDzGBqah2eOQqPNoWEpzhgv2wLmTScnngGyhHkPRgqJ5UMd/94AtkgSGsWPU98AOmjkOsD+PbNq5x2ypFIkACCLI5uubnDEDlCI42qUOvvBqC2STdciriCAkUBz4997AAnvtnCx7aGRBGpZ8rppckrNtrgcayaOa1VcXN5AwtsAeXkDK7itLZsuI1iOANkhQNmSmtTlDZUsyTs3Ym1DVBrf9gpQDWmr20eAsgAaYTIDRMjRNlLkyBHNIYApDQNAGTUAo28LppwRUNkedOT8pn3ceOdhBi0AdkrVMmgOV+NnxgLF3ASAMKLliPoUAMrLqI46vgESV3BlnPoGyEPTHUo+WFKlgkmNyWZiKlZGiR80Dnm0ATw9JSvLOu+hmA5nMr0hz5RE2ThW5HsrGY4J+4qy0nzPWMAAoLCsxmTihw6Yl1QD1dJ9SXNoVKUVpQNgSZnGkgGgjNY6eOQ6oCB9N56icREbLXCASpz90GmBhYbHjq9xWWlCGFSiMZUjVGktHojvxnWo9ahaEMCYzxoS4KXO58RxAbvWXU26/gZUM70kkVDyKGZ6RSI7cCPOdvZK1uPGAe5OiJHYUnHbxsxHz89o7wjnOZTpvXoRe7+0xYXKeo8CwOw9eX7ANrrbsyzAvqQVWv51SUvTnmyOgWMJs69kv0lcw/MPrEhdiQemI3UMFXbxxrokRXlk9mzKEKV4tK+MI7Br6/lF9huW82l0AOBRfPX1EJJzqL0aV3dbgd/Zs3hzo5ju/MUaBbfwSR0jkCM+WeKNzWxM9y35q8Rffqx2ny+saIzs+Ml8/FV7ryjHrXljBOcrqjore41kjC0J5gQGYJQV7MThjOKo/keVGBRR87QtihHLnskPxooGAHXdBQ4HgB+6hCJ+jguR1kA7NQOAHK+OTlMMAKWgNxnslHQRy5lydUwoP4rRH9t0QTlRAp2bmX6HKbJ1CJHRbxrsv+9BWD1wQ//suhxacPLY4q6Poo1XHFOyDRCpWC4Lh1nz2FjzuPRR2dE31Dhic9cxO7LpWlGZWnfY2IAnLNcRnJd+j5AG4PcI6f8wQipYIDqA5GhbJs+Wo6wEWb+bAwJYbNS8DHhusMByOdSXRPzQ64fipimTKdK3hUbmA32o7KlQKZDLUMu7HGWDhaxD3m0ApUmdl44qxdHzXS8QDVuG5HlLUtEPavnASxA0DVr4fVXC8Fal9G0A4EoNdJRnhwjDkX4jdgMAd26F3humZaTa5Qe7c0uSZsfFSG9XDQCXdNHRXsz8AM1D4AqrO25+Q8g8lsyvc2j0hpEPbWH2Zx0IE6694MA9eqMfMvQlwaV1oTfEPfiWe3RPyDgFnC56T4ucNhw6eSeFxJLmMQTeGgg+BIgosCptEmNDsudV2iIZpkiZVp8+igT9RjVryOhkrtOtyy3z+QTq4uBwlhroHN9CDLrojWSP7AuMIQehHdlnfH688Xz4cmPw35F9nXOAx9vbt0Rv9iwp+1TFgz0TSH1KiM9nN/P9+BTs2Z3Fmzt39uz5AauBo0PRX/746qa9/fD2pdfH8+Pj5UOx/f/xyzD70+Wrsvj+Ow==);lineShape=1;fontSize=4;" vertex="1" parent="1">
                    <mxGeometry x="403.80800208118626" y="131.64021779828636" width="12.025306901888227" height="21.524628857179945" as="geometry"/>
                </mxCell>
                <mxCell id="69" value="" style="shape=stencil(lVjbchoxDP0aXjW2ZVv2c5r+R2ZCClMKGUJ6+ftqy3iDBHto3pZFZ63r0dld8cPb5ul1vUrh7XQ8fF//2j6fNiv+skppu9+sj9uTXq34ccUPL4fj+tvx8L5/Pv9+fZosp6sfh5/TE36fcYF6nkAp/DnfaJ2i/Lvz9Wy/2+4v7Au1Yu0zpbhsHyMFMQDpFBgACrH1SDLVvgyYQmADqI1aBQCh1CwgEYMTOBMHAyiFaloG5EjZupQbCXBJ/042rTnBE0r2QXOlBupQtQ7JAiJ1cEKtxBaQ1ElQOAkkttIfzXIboHW1MSQmaQAgI4kzIFEGhWuBsk2rNktDAPZZip1SAIBC2XZrrLDSTajbXopMHbjUA7FN6zRSIEtds9QNIIxK3rZvfuACBRCy2jf/fFSE3q8CIEH+dBLrD1NB8XbqtsjadoDBJnvr/5yAJXtHeVE7HfS1AooDJGo44ui6ThkHNJGWoNgQlDVRmyog5CsAikGoRO9SQScIBTub2tcBpVXnxE7/1NeAwRRQLG03qviAaietUkRJrX5umBrgO404upxSR/4LVZvSMBxcqlmszj7gORb//IT7Ormuu2fv6RrH2z3TFchbMcy8M2/+0YSLB9gA9AYe/OqIKFHEzJIcgOHOnErgAAX39KcBkaLbaGVwwe190/wUpAbnstUroaD7A7ikO9PtD05QQupWFusSY6qQq52pAAGjo8qiiQd0JEXi0KQzoEC6U3VU7XCyUAMxqP7KdjpVJKLuVonJThJWqFJVQ1bLjyVBaa4OuEVeGlw7qoNdt9YypPSS0hbrkiTIAUpBTrAJJvl4630EsaouGb9FdPsCmp+TPpNMHuv99gGjb2b7DlVwHDX6UBdYf4Ur1utwT4WRwAt7pHdUzbkAGtRfYSiP2V7u2LsXQl28GbTp1VboZcil/7TXPQ7zGWxD9AQHM/i1qZzMoMCaT2c/K/qlellmafPiXeqHT73B37fXi4/PBS/b3e78teHyf/95QW+dP03w418=);lineShape=1;fontSize=4;" vertex="1" parent="1">
                    <mxGeometry x="417.5598276890287" y="141.78030989027297" width="16.72933749577979" height="3.7520752029805324" as="geometry"/>
                </mxCell>
                <mxCell id="70" value="" style="shape=stencil(lVfZbttADPwavRLce/c5Tf8jQJzaqGsHjtPj7zuusLaXiqbImyxxzB1yeOwUHt62T6+byevb+XT8vvm1ez5vp/Bl8n532G5OuzOepvA4hYeX42nz7XR8PzzPv1+fLpaXpx/Hn5d/+D3jnEopF5TXP/MbldD+vfg62+93hzv74KS2wb6Iq+v2sUh2gz085rAOSEWqjgAv6tYBuUmNIyBKIB6qijdHytIIhxalhQHggyRdBzhV0ZFESBIycVH65w6IYE1INGfjGqvkQlhH0TFxCbRIXEsWNx4pq1RPEoEo+hGQKSBVKXXUkucAaHMMa6mUg0/iR20g0IV4QGIN6dZEIwGopGYBjINb6BsApj6XbOIAoOrzUgzpKpFwQEU24wGppPoWHTPdcMhE1CotjfZBlIh12ZWgd0faEjjHMaoVQWJRjb1argAEiRQc8hbGqFZkknCGMtwCQMWKvGV7pERIexRwtKQr4eBz18FdWCPzgOZuEh0kMg7ZjgcoI5BMo0JND0CFskyjQk2Xgbozaa0eFI2HRieQq7Z+7vr5Wom2Yl0U5gJRzJYEE5O75ukuTJGwRgX5ZBORSVyhHEMhcApqKw5aKqxE3SLTypvAZwGhWGkUvsxEjLiRQ44UgJFpooR1hUU1Y56MaUi+t4W1qZvHXSM6PteDnSdY0TLpfCVKGQGXoiWZzosSReNxpAkgSnkUK2owE3VHcBg9uEYBOLGZuljhPFtDO8O7LZSNh9B70FV6fQX8WKp95N/MlewA2gvltkOzwYBBMoou0+Asds9E12HtgbsKjp7d2X/3tOp9V8o18HT/wl49lov2gvtYaXa9U6qC0tvHzZy19Wq3FqWr4GevUv+3x8Pt3vay2+/na9/9d3vPw6v5jhge/wI=);lineShape=1;fontSize=4;" vertex="1" parent="1">
                    <mxGeometry x="432.96631570002455" y="140.00310816668895" width="3.8189724970133367" height="5.404995268163475" as="geometry"/>
                </mxCell>
            </root>
        </mxGraphModel>
    </diagram>
</mxfile>